<svg version="1.1" id="Layer_1" xmlns="http://www.w3.org/2000/svg" xmlns:xlink="http://www.w3.org/1999/xlink" x="0px" y="0px"
	 width="100%" viewBox="0 0 331 70" enable-background="new 0 0 331 70" xml:space="preserve">
<path fill="#02379D" opacity="1.000000" stroke="none" 
	d="
M1.000000,63.000000 
	C1.000000,44.979103 1.000000,26.958210 1.339049,8.608128 
	C3.785398,5.852627 5.892699,3.426313 8.000000,1.000000 
	C19.354227,1.000000 30.708456,1.000000 42.311386,1.291097 
	C42.744274,2.030011 42.928459,2.477828 43.063622,3.398018 
	C43.043732,25.489355 43.072865,47.108318 42.645309,68.868729 
	C31.864029,69.052505 21.539185,69.065552 11.214971,69.152962 
	C7.570807,69.183807 4.760600,67.975731 2.998641,64.603165 
	C2.636471,63.909935 1.681651,63.526325 1.000000,63.000000 
M30.843065,51.726059 
	C30.242929,46.407616 29.546453,46.017826 23.465412,47.391285 
	C23.465412,51.628960 23.465412,55.802731 23.465412,59.965096 
	C30.757093,60.807888 31.161394,60.395615 30.843065,51.726059 
M18.486177,56.977600 
	C17.611925,56.736675 16.013266,56.569000 15.980303,56.243004 
	C15.756653,54.031147 15.863420,51.785881 15.863420,49.276501 
	C17.959402,49.586216 19.289721,49.782791 20.620037,49.979370 
	C20.804064,49.440571 20.988091,48.901775 21.172117,48.362980 
	C19.501419,47.839733 17.750164,46.757912 16.187428,46.983284 
	C15.086400,47.142067 13.648926,48.966904 13.412945,50.242371 
	C12.998512,52.482346 12.920217,55.025181 13.613893,57.142078 
	C14.052020,58.479115 16.122526,60.115395 17.503510,60.155704 
	C21.963568,60.285896 20.956680,56.909489 20.966179,54.322010 
	C20.497435,54.052258 20.028690,53.782501 19.559946,53.512745 
	C19.101274,54.415760 18.642605,55.318775 18.486177,56.977600 
z"/>
<path fill="#0C0902" opacity="1.000000" stroke="none" 
	d="
M43.112644,2.925645 
	C42.928459,2.477828 42.744274,2.030011 42.780045,1.291097 
	C139.265732,1.000000 235.531448,1.000000 331.898590,1.000000 
	C331.898590,24.248960 331.898590,47.498512 331.898590,70.874031 
	C221.666794,70.874031 111.333397,70.874031 1.000000,70.874031 
	C1.000000,68.652878 1.000000,66.321175 1.000000,63.494736 
	C1.681651,63.526325 2.636471,63.909935 2.998641,64.603165 
	C4.760600,67.975731 7.570807,69.183807 11.214971,69.152962 
	C21.539185,69.065552 31.864029,69.052505 43.107742,68.902046 
	C135.659027,68.798218 227.291199,68.802521 318.923370,68.806618 
	C319.589783,68.806648 320.257111,68.825943 320.922485,68.798927 
	C326.972046,68.553360 329.759979,65.833458 329.784302,59.777309 
	C329.848572,43.783585 329.852386,27.789221 329.781921,11.795546 
	C329.754272,5.522485 327.138092,2.876542 321.006409,2.876409 
	C228.375153,2.874400 135.743896,2.903692 43.112644,2.925645 
z"/>
<path fill="#0C0902" opacity="1.000000" stroke="none" 
	d="
M7.502095,1.000000 
	C5.892699,3.426313 3.785398,5.852627 1.339049,8.139470 
	C1.000000,5.752362 1.000000,3.504725 1.000000,1.000000 
	C2.998142,1.000000 5.001166,1.000000 7.502095,1.000000 
z"/>
<path fill="#F9B30E" opacity="1.000000" stroke="none" 
	d="
M43.063622,3.398018 
	C135.743896,2.903692 228.375153,2.874400 321.006409,2.876409 
	C327.138092,2.876542 329.754272,5.522485 329.781921,11.795546 
	C329.852386,27.789221 329.848572,43.783585 329.784302,59.777309 
	C329.759979,65.833458 326.972046,68.553360 320.922485,68.798927 
	C320.257111,68.825943 319.589783,68.806648 318.923370,68.806618 
	C227.291199,68.802521 135.659027,68.798218 43.564430,68.760605 
	C43.072865,47.108318 43.043732,25.489355 43.063622,3.398018 
M238.317322,27.586779 
	C238.455994,23.180538 236.575684,19.832415 232.148148,19.300140 
	C227.479126,18.738838 222.690277,19.174320 218.482040,19.174320 
	C218.482040,30.321758 218.482040,40.800488 218.482040,51.849754 
	C221.919373,51.849754 225.704041,51.927917 229.484299,51.831944 
	C235.572372,51.677372 238.555466,48.953590 238.197540,42.893002 
	C237.911316,38.045864 236.653076,33.260387 238.317322,27.586779 
M107.647682,36.449257 
	C107.685974,39.278553 107.513443,42.130146 107.809723,44.932163 
	C108.311691,49.679531 111.273003,51.782578 117.054077,51.868301 
	C124.322403,51.976082 127.624924,50.182281 128.144379,45.315468 
	C128.508789,41.901184 128.214722,38.416622 128.214722,34.806828 
	C124.744484,34.806828 121.695282,34.806828 118.254013,34.806828 
	C118.670898,37.202652 116.868217,40.010986 120.995995,40.276329 
	C121.507469,40.309204 122.506004,42.022606 122.294250,42.390377 
	C121.521461,43.732533 120.491264,45.604321 119.263733,45.859253 
	C117.023422,46.324520 113.835991,46.882347 113.659309,43.004665 
	C113.462418,38.683151 113.533638,34.346684 113.578079,30.017645 
	C113.628036,25.151005 116.973938,23.319855 121.562851,25.274921 
	C123.475502,26.089788 125.704941,26.161087 128.358093,26.681952 
	C126.340561,19.690258 123.347755,18.227928 114.936417,19.059307 
	C110.735687,19.474508 108.147339,21.733376 107.812492,26.012894 
	C107.566254,29.159920 107.689331,32.335842 107.647682,36.449257 
M132.955170,44.890350 
	C134.770569,50.958019 138.066849,52.697388 146.178864,51.822292 
	C150.845825,51.318840 153.509827,48.626835 153.574997,44.010872 
	C153.613403,41.290745 153.650513,37.134903 152.075623,36.115108 
	C148.357666,33.707600 143.674820,32.790173 138.648041,31.010128 
	C138.988739,29.563997 138.830032,26.487295 140.172241,25.542231 
	C141.665405,24.490856 144.538391,25.248268 146.786972,25.464788 
	C148.860687,25.664473 150.902969,26.190844 153.541595,26.681677 
	C151.527115,19.654913 148.449799,18.191031 140.085175,19.066721 
	C135.485031,19.548311 133.017487,22.383532 132.934128,27.562769 
	C132.845978,33.039391 132.916702,38.518574 132.955170,44.890350 
M178.605759,37.385624 
	C176.465088,30.388872 170.327072,32.159447 164.866196,31.574131 
	C165.348190,29.227613 165.766220,27.192591 166.269608,24.741993 
	C170.280594,24.741993 174.033707,24.741993 177.909561,24.741993 
	C177.909561,22.674793 177.909561,21.092817 177.909561,19.284615 
	C172.229324,19.284615 166.814880,19.284615 161.187378,19.284615 
	C160.647858,22.401730 160.131531,25.326876 159.637436,28.255768 
	C159.150070,31.144722 158.685226,34.037472 158.033020,38.009380 
	C161.040771,37.822411 163.331406,37.547962 165.619019,37.571247 
	C168.476944,37.600330 172.322678,35.705448 172.960785,40.795422 
	C173.556122,45.544090 170.537796,47.319969 165.098831,45.794285 
	C163.030426,45.214077 160.757095,45.364429 157.977005,45.131531 
	C160.769379,51.432564 164.966537,53.082268 172.197540,51.731888 
	C176.622711,50.905495 178.782440,47.986904 178.851456,42.687199 
	C178.870895,41.193676 178.810394,39.699120 178.605759,37.385624 
M102.369324,47.443558 
	C104.356163,38.920750 103.073349,36.379833 95.215912,33.233059 
	C93.369980,32.493793 91.303841,32.023315 89.785828,30.850733 
	C88.861595,30.136805 88.435532,28.304161 88.480293,26.997829 
	C88.504822,26.282177 89.919678,25.126286 90.800865,25.030951 
	C92.555038,24.841171 94.380920,25.190432 96.163750,25.420855 
	C98.367393,25.705669 100.557396,26.096096 103.481407,26.555218 
	C100.554688,19.480341 98.841232,18.642860 90.487907,19.050140 
	C85.318047,19.302208 82.801796,22.038597 82.418282,27.221418 
	C81.852692,34.864838 87.538422,36.461803 92.891708,38.379791 
	C95.802971,39.422852 98.761177,41.049908 96.692764,44.211624 
	C95.772179,45.618813 91.862434,45.347435 89.313782,45.325718 
	C87.242645,45.308071 85.178024,44.526203 83.110504,44.083248 
	C82.745407,44.874836 82.380310,45.666424 82.015205,46.458012 
	C84.136734,48.166477 86.061493,50.918434 88.421280,51.363438 
	C93.149338,52.255058 98.470558,53.311954 102.369324,47.443558 
M248.230698,48.516811 
	C251.916580,44.545097 254.492554,45.447239 256.730652,51.435875 
	C258.456512,51.435875 260.149933,51.435875 262.279266,51.435875 
	C259.707672,40.362736 257.250061,29.780384 254.808075,19.265329 
	C252.642563,19.265329 251.026306,19.265329 249.121704,19.265329 
	C246.651886,29.995789 244.213348,40.590340 241.774811,51.184891 
	C242.170944,51.642498 242.567078,52.100101 242.963211,52.557705 
	C244.665680,51.498119 246.368149,50.438534 248.230698,48.516811 
M205.578979,25.875217 
	C204.746429,27.624454 203.913879,29.373692 202.639648,32.050926 
	C200.682114,27.248930 199.096176,23.358509 197.451767,19.324654 
	C196.096497,19.324654 194.513489,19.324654 191.959595,19.324654 
	C194.042175,30.637997 202.921127,39.807194 199.556732,52.013111 
	C202.249374,51.773174 203.818008,51.633392 206.532776,51.391483 
	C202.046814,39.204716 212.370743,30.455088 213.229309,19.305477 
	C210.920502,19.305477 209.331116,19.305477 207.819809,19.305477 
	C207.117493,21.420622 206.498322,23.285429 205.578979,25.875217 
z"/>
<path fill="#E7C70F" opacity="1.000000" stroke="none" 
	d="
M30.776443,52.169151 
	C31.161394,60.395615 30.757093,60.807888 23.465412,59.965096 
	C23.465412,55.802731 23.465412,51.628960 23.465412,47.391285 
	C29.546453,46.017826 30.242929,46.407616 30.776443,52.169151 
z"/>
<path fill="#DDC115" opacity="1.000000" stroke="none" 
	d="
M18.335056,56.599693 
	C18.642605,55.318775 19.101274,54.415760 19.559946,53.512745 
	C20.028690,53.782501 20.497435,54.052258 20.966179,54.322010 
	C20.956680,56.909489 21.963568,60.285896 17.503510,60.155704 
	C16.122526,60.115395 14.052020,58.479115 13.613893,57.142078 
	C12.920217,55.025181 12.998512,52.482346 13.412945,50.242371 
	C13.648926,48.966904 15.086400,47.142067 16.187428,46.983284 
	C17.750164,46.757912 19.501419,47.839733 21.172117,48.362980 
	C20.988091,48.901775 20.804064,49.440571 20.620037,49.979370 
	C19.289721,49.782791 17.959402,49.586216 15.863420,49.276501 
	C15.863420,51.785881 15.756653,54.031147 15.980303,56.243004 
	C16.013266,56.569000 17.611925,56.736675 18.335056,56.599693 
z"/>
<path fill="#201F22" opacity="1.000000" stroke="none" 
	d="
M238.318176,28.017525 
	C236.653076,33.260387 237.911316,38.045864 238.197540,42.893002 
	C238.555466,48.953590 235.572372,51.677372 229.484299,51.831944 
	C225.704041,51.927917 221.919373,51.849754 218.482040,51.849754 
	C218.482040,40.800488 218.482040,30.321758 218.482040,19.174320 
	C222.690277,19.174320 227.479126,18.738838 232.148148,19.300140 
	C236.575684,19.832415 238.455994,23.180538 238.318176,28.017525 
M226.582016,24.858883 
	C225.927353,27.267380 225.272675,29.675877 224.475021,32.610455 
	C228.449005,32.448273 231.896301,34.135422 232.530624,29.345196 
	C233.059143,25.353855 230.879822,24.384029 226.582016,24.858883 
M226.614182,38.197742 
	C225.933441,40.616028 225.252716,43.034309 224.273987,46.511196 
	C228.164764,45.434471 231.872528,47.898422 232.484909,42.898846 
	C232.949539,39.105583 230.971283,37.774189 226.614182,38.197742 
z"/>
<path fill="#252222" opacity="1.000000" stroke="none" 
	d="
M107.647751,35.974072 
	C107.689331,32.335842 107.566254,29.159920 107.812492,26.012894 
	C108.147339,21.733376 110.735687,19.474508 114.936417,19.059307 
	C123.347755,18.227928 126.340561,19.690258 128.358093,26.681952 
	C125.704941,26.161087 123.475502,26.089788 121.562851,25.274921 
	C116.973938,23.319855 113.628036,25.151005 113.578079,30.017645 
	C113.533638,34.346684 113.462418,38.683151 113.659309,43.004665 
	C113.835991,46.882347 117.023422,46.324520 119.263733,45.859253 
	C120.491264,45.604321 121.521461,43.732533 122.294250,42.390377 
	C122.506004,42.022606 121.507469,40.309204 120.995995,40.276329 
	C116.868217,40.010986 118.670898,37.202652 118.254013,34.806828 
	C121.695282,34.806828 124.744484,34.806828 128.214722,34.806828 
	C128.214722,38.416622 128.508789,41.901184 128.144379,45.315468 
	C127.624924,50.182281 124.322403,51.976082 117.054077,51.868301 
	C111.273003,51.782578 108.311691,49.679531 107.809723,44.932163 
	C107.513443,42.130146 107.685974,39.278553 107.647751,35.974072 
z"/>
<path fill="#1F1E22" opacity="1.000000" stroke="none" 
	d="
M132.936600,44.443493 
	C132.916702,38.518574 132.845978,33.039391 132.934128,27.562769 
	C133.017487,22.383532 135.485031,19.548311 140.085175,19.066721 
	C148.449799,18.191031 151.527115,19.654913 153.541595,26.681677 
	C150.902969,26.190844 148.860687,25.664473 146.786972,25.464788 
	C144.538391,25.248268 141.665405,24.490856 140.172241,25.542231 
	C138.830032,26.487295 138.988739,29.563997 138.648041,31.010128 
	C143.674820,32.790173 148.357666,33.707600 152.075623,36.115108 
	C153.650513,37.134903 153.613403,41.290745 153.574997,44.010872 
	C153.509827,48.626835 150.845825,51.318840 146.178864,51.822292 
	C138.066849,52.697388 134.770569,50.958019 132.936600,44.443493 
M142.522202,46.077148 
	C145.008423,46.051289 148.095001,46.507496 147.700912,42.674084 
	C147.539459,41.103725 146.038452,38.563625 144.932816,38.444099 
	C143.031479,38.238544 139.975723,39.038147 139.212296,40.416862 
	C138.247330,42.159534 137.686539,45.558426 142.522202,46.077148 
z"/>
<path fill="#222022" opacity="1.000000" stroke="none" 
	d="
M178.696167,37.795330 
	C178.810394,39.699120 178.870895,41.193676 178.851456,42.687199 
	C178.782440,47.986904 176.622711,50.905495 172.197540,51.731888 
	C164.966537,53.082268 160.769379,51.432564 157.977005,45.131531 
	C160.757095,45.364429 163.030426,45.214077 165.098831,45.794285 
	C170.537796,47.319969 173.556122,45.544090 172.960785,40.795422 
	C172.322678,35.705448 168.476944,37.600330 165.619019,37.571247 
	C163.331406,37.547962 161.040771,37.822411 158.033020,38.009380 
	C158.685226,34.037472 159.150070,31.144722 159.637436,28.255768 
	C160.131531,25.326876 160.647858,22.401730 161.187378,19.284615 
	C166.814880,19.284615 172.229324,19.284615 177.909561,19.284615 
	C177.909561,21.092817 177.909561,22.674793 177.909561,24.741993 
	C174.033707,24.741993 170.280594,24.741993 166.269608,24.741993 
	C165.766220,27.192591 165.348190,29.227613 164.866196,31.574131 
	C170.327072,32.159447 176.465088,30.388872 178.696167,37.795330 
z"/>
<path fill="#222022" opacity="1.000000" stroke="none" 
	d="
M102.196930,47.814861 
	C98.470558,53.311954 93.149338,52.255058 88.421280,51.363438 
	C86.061493,50.918434 84.136734,48.166477 82.015205,46.458012 
	C82.380310,45.666424 82.745407,44.874836 83.110504,44.083248 
	C85.178024,44.526203 87.242645,45.308071 89.313782,45.325718 
	C91.862434,45.347435 95.772179,45.618813 96.692764,44.211624 
	C98.761177,41.049908 95.802971,39.422852 92.891708,38.379791 
	C87.538422,36.461803 81.852692,34.864838 82.418282,27.221418 
	C82.801796,22.038597 85.318047,19.302208 90.487907,19.050140 
	C98.841232,18.642860 100.554688,19.480341 103.481407,26.555218 
	C100.557396,26.096096 98.367393,25.705669 96.163750,25.420855 
	C94.380920,25.190432 92.555038,24.841171 90.800865,25.030951 
	C89.919678,25.126286 88.504822,26.282177 88.480293,26.997829 
	C88.435532,28.304161 88.861595,30.136805 89.785828,30.850733 
	C91.303841,32.023315 93.369980,32.493793 95.215912,33.233059 
	C103.073349,36.379833 104.356163,38.920750 102.196930,47.814861 
z"/>
<path fill="#201F22" opacity="1.000000" stroke="none" 
	d="
M248.150665,48.947880 
	C246.368149,50.438534 244.665680,51.498119 242.963211,52.557705 
	C242.567078,52.100101 242.170944,51.642498 241.774811,51.184891 
	C244.213348,40.590340 246.651886,29.995789 249.121704,19.265329 
	C251.026306,19.265329 252.642563,19.265329 254.808075,19.265329 
	C257.250061,29.780384 259.707672,40.362736 262.279266,51.435875 
	C260.149933,51.435875 258.456512,51.435875 256.730652,51.435875 
	C254.492554,45.447239 251.916580,44.545097 248.150665,48.947880 
M251.182541,33.060806 
	C250.765991,35.433552 250.349457,37.806293 249.869125,40.542450 
	C251.403992,40.542450 252.570847,40.542450 254.673965,40.542450 
	C253.504410,37.466587 252.544144,34.941113 251.182541,33.060806 
z"/>
<path fill="#232122" opacity="1.000000" stroke="none" 
	d="
M205.729065,25.512728 
	C206.498322,23.285429 207.117493,21.420622 207.819809,19.305477 
	C209.331116,19.305477 210.920502,19.305477 213.229309,19.305477 
	C212.370743,30.455088 202.046814,39.204716 206.532776,51.391483 
	C203.818008,51.633392 202.249374,51.773174 199.556732,52.013111 
	C202.921127,39.807194 194.042175,30.637997 191.959595,19.324654 
	C194.513489,19.324654 196.096497,19.324654 197.451767,19.324654 
	C199.096176,23.358509 200.682114,27.248930 202.639648,32.050926 
	C203.913879,29.373692 204.746429,27.624454 205.729065,25.512728 
z"/>
<path fill="#E7A610" opacity="1.000000" stroke="none" 
	d="
M227.019043,24.835400 
	C230.879822,24.384029 233.059143,25.353855 232.530624,29.345196 
	C231.896301,34.135422 228.449005,32.448273 224.475021,32.610455 
	C225.272675,29.675877 225.927353,27.267380 227.019043,24.835400 
z"/>
<path fill="#EAA910" opacity="1.000000" stroke="none" 
	d="
M227.029205,38.175499 
	C230.971283,37.774189 232.949539,39.105583 232.484909,42.898846 
	C231.872528,47.898422 228.164764,45.434471 224.273987,46.511196 
	C225.252716,43.034309 225.933441,40.616028 227.029205,38.175499 
z"/>
<path fill="#EEAB0F" opacity="1.000000" stroke="none" 
	d="
M142.086975,46.066422 
	C137.686539,45.558426 138.247330,42.159534 139.212296,40.416862 
	C139.975723,39.038147 143.031479,38.238544 144.932816,38.444099 
	C146.038452,38.563625 147.539459,41.103725 147.700912,42.674084 
	C148.095001,46.507496 145.008423,46.051289 142.086975,46.066422 
z"/>
<path fill="#DC9F11" opacity="1.000000" stroke="none" 
	d="
M251.383209,32.738224 
	C252.544144,34.941113 253.504410,37.466587 254.673965,40.542450 
	C252.570847,40.542450 251.403992,40.542450 249.869125,40.542450 
	C250.349457,37.806293 250.765991,35.433552 251.383209,32.738224 
z"/>
</svg>